<?xml version="1.0" encoding="UTF-8" standalone="no"?>
<svg
   version="1.1"
   width="2000"
   height="707"
   viewBox="0 0 2000 707"
   id="svg16"
   sodipodi:docname="idngcp-high-resolution-logo-transparent.svg"
   inkscape:version="1.3.2 (091e20e, 2023-11-25)"
   xmlns:inkscape="http://www.inkscape.org/namespaces/inkscape"
   xmlns:sodipodi="http://sodipodi.sourceforge.net/DTD/sodipodi-0.dtd"
   xmlns="http://www.w3.org/2000/svg"
   xmlns:svg="http://www.w3.org/2000/svg">
  <defs
     id="defs16" />
  <sodipodi:namedview
     id="namedview16"
     pagecolor="#505050"
     bordercolor="#ffffff"
     borderopacity="1"
     inkscape:showpageshadow="0"
     inkscape:pageopacity="0"
     inkscape:pagecheckerboard="1"
     inkscape:deskcolor="#505050"
     inkscape:zoom="0.33380481"
     inkscape:cx="940.66949"
     inkscape:cy="316.05297"
     inkscape:window-width="1440"
     inkscape:window-height="900"
     inkscape:window-x="0"
     inkscape:window-y="0"
     inkscape:window-maximized="0"
     inkscape:current-layer="g8" />
  <g
     transform="matrix(0.92574053,0,0,0.88341804,36.720955,19.06552)"
     id="g15">
    <svg
       viewBox="0 0 396 140"
       data-background-color="#ffffff"
       preserveAspectRatio="xMidYMid"
       height="707"
       width="2000"
       version="1.1"
       id="svg15">
      <g
         id="tight-bounds"
         transform="translate(0.24,6.3893742)">
        <svg
           viewBox="0 0 395.52 133.69799"
           height="133.69798"
           width="395.51999"
           version="1.1"
           id="svg14">
          <g
             id="g13">
            <svg
               viewBox="0 0 634.52338 214.48852"
               height="133.69798"
               width="395.51999"
               version="1.1"
               id="svg13">
              <g
                 transform="translate(239.00338,32.434108)"
                 id="g5">
                <svg
                   viewBox="0 0 395.52 149.6203"
                   height="149.6203"
                   width="395.51999"
                   version="1.1"
                   id="svg5">
                  <g
                     id="textblocktransform">
                    <svg
                       viewBox="0 0 395.52 149.6203"
                       height="149.6203"
                       width="395.51999"
                       id="textblock"
                       version="1.1">
                      <g
                         id="g2">
                        <svg
                           viewBox="0 0 395.52 103.84309"
                           height="103.84309"
                           width="395.51999"
                           version="1.1"
                           id="svg2">
                          <g
                             id="g1">
                            <svg
                               width="395.51999"
                               viewBox="5 -33.25 129.49 34"
                               height="103.84309"
                               data-palette-color="#ff5858"
                               version="1.1"
                               id="svg1">
                              <path
                                 d="M 8.5,-32.5 V 0 H 5 V -32.5 Z M 26.55,0 V 0 H 18.5 v -32.5 h 8.05 q 3.9,0 5.92,1.85 2.03,1.85 2.03,5.15 v 0 18.5 q 0,3.35 -2,5.17 Q 30.5,0 26.55,0 Z M 31,-7 v 0 -18.5 q 0,-1.9 -1.15,-2.95 -1.15,-1.05 -3.3,-1.05 v 0 H 22 V -3 h 4.55 Q 31,-3 31,-7 Z M 47.25,-25.25 V 0 h -3.5 v -32.5 h 1.5 l 1.25,3.25 q 2.4,-4 6.65,-4 v 0 q 7.35,0 7.35,7 v 0 V 0 H 57 v -26.25 q 0,-1.9 -0.83,-2.95 -0.82,-1.05 -3.02,-1.05 -2.2,0 -4.05,1.7 -1.85,1.7 -1.85,3.3 z m 34.99,11.75 h -5.6 v -3 h 9.1 v 10.25 q 0,3.35 -2.05,5.18 -2.05,1.82 -6.15,1.82 -4.1,0 -6.2,-1.82 -2.1,-1.83 -2.1,-5.18 v 0 -20 q 0,-3.35 2.05,-5.18 2.05,-1.82 6.15,-1.82 4.1,0 6.2,1.82 2.1,1.83 2.1,5.18 v 0 2.75 h -3.5 v -2.75 q 0,-4 -4.75,-4 -4.75,0 -4.75,4 v 0 20 q 0,4 4.75,4 4.75,0 4.75,-4 v 0 z m 25,7.25 v 0 V -9 h 3.5 v 2.75 q 0,3.35 -2.05,5.18 -2.05,1.82 -6.15,1.82 -4.1,0 -6.2,-1.82 -2.1,-1.83 -2.1,-5.18 v 0 -20 q 0,-3.35 2.05,-5.18 2.05,-1.82 6.15,-1.82 4.1,0 6.2,1.82 2.1,1.83 2.1,5.18 v 0 4.75 h -3.5 v -4.75 q 0,-4 -4.75,-4 -4.75,0 -4.75,4 v 0 20 q 0,4 4.75,4 4.75,0 4.75,-4 z M 122.49,-10 V 0 h -3.5 v -32.5 h 7.55 q 3.9,0 5.92,1.85 2.03,1.85 2.03,5.15 v 0 8.5 q 0,3.35 -2,5.17 -2,1.83 -5.95,1.83 v 0 z m 8.5,-7 v 0 -8.5 q 0,-1.9 -1.15,-2.95 -1.15,-1.05 -3.3,-1.05 v 0 h -4.05 V -13 h 4.05 q 4.45,0 4.45,-4 z"
                                 opacity="1"
                                 fill="#ff5858"
                                 class="wordmark-text-0"
                                 data-fill-palette-color="primary"
                                 id="text-0" />
                            </svg>
                          </g>
                        </svg>
                      </g>
                      <g
                         transform="translate(0,128.35795)"
                         id="g4">
                        <svg
                           viewBox="0 0 232.20979 21.262353"
                           height="21.262352"
                           width="232.20979"
                           version="1.1"
                           id="svg4">
                          <g
                             id="g3">
                            <svg
                               width="232.20979"
                               viewBox="2.3 -35.4 484.85 44.4"
                               height="21.262352"
                               data-palette-color="#ed2647"
                               version="1.1"
                               id="svg3">
                              <path
                                 d="M 14.05,0.35 Q 10.45,0.35 7.8,-1.2 5.15,-2.75 3.73,-5.58 2.3,-8.4 2.3,-12.2 v 0 q 0,-3.8 1.48,-6.68 1.47,-2.87 4.15,-4.47 2.67,-1.6 6.27,-1.6 v 0 q 2.45,0 4.8,0.87 2.35,0.88 3.8,2.33 v 0 l -1.35,3 q -3.45,-2.8 -7,-2.8 v 0 q -3.75,0 -5.85,2.45 -2.1,2.45 -2.1,6.9 v 0 q 0,4.4 2.1,6.8 2.1,2.4 5.85,2.4 v 0 q 3.55,0 7,-2.8 v 0 l 1.35,3 q -1.55,1.45 -3.9,2.3 -2.35,0.85 -4.85,0.85 z m 23.75,0 q -3.45,0 -6.08,-1.55 -2.62,-1.55 -4.05,-4.43 -1.42,-2.87 -1.42,-6.67 v 0 q 0,-3.8 1.42,-6.68 1.43,-2.87 4.05,-4.42 2.63,-1.55 6.08,-1.55 v 0 q 3.45,0 6.1,1.55 2.65,1.55 4.07,4.42 1.43,2.88 1.43,6.68 v 0 q 0,3.8 -1.43,6.67 -1.42,2.88 -4.07,4.43 -2.65,1.55 -6.1,1.55 z m 0,-3.35 q 3.6,0 5.52,-2.38 1.93,-2.37 1.93,-6.92 v 0 q 0,-4.45 -1.95,-6.88 -1.95,-2.42 -5.5,-2.42 v 0 q -3.55,0 -5.5,2.42 -1.95,2.43 -1.95,6.88 v 0 q 0,4.5 1.92,6.9 1.93,2.4 5.53,2.4 z m 29.9,-21.95 q 3.2,0 5.65,1.6 2.45,1.6 3.8,4.47 1.35,2.88 1.35,6.68 v 0 q 0,3.8 -1.35,6.62 -1.35,2.83 -3.78,4.38 -2.42,1.55 -5.67,1.55 v 0 q -2.85,0 -4.98,-1.25 -2.12,-1.25 -3.22,-3.55 v 0 V 9 h -4.05 v -33.35 h 4.05 v 4.2 q 1.1,-2.3 3.22,-3.55 2.13,-1.25 4.98,-1.25 z M 66.9,-3 q 3.55,0 5.5,-2.4 1.95,-2.4 1.95,-6.8 v 0 q 0,-4.4 -1.95,-6.87 -1.95,-2.48 -5.5,-2.48 v 0 q -3.55,0 -5.48,2.4 -1.92,2.4 -1.92,6.85 v 0 q 0,4.45 1.92,6.87 Q 63.35,-3 66.9,-3 Z m 26.54,-1.4 8.25,-19.9 h 4.05 L 91.34,9 h -4.15 l 4.1,-9.3 -10.3,-24 h 4.3 z m 29.6,-7.25 h -14 V -15 h 14 z m 34.5,-13.3 q 8.1,0 8.1,9.65 v 0 V 0 h -4.05 v -15.1 q 0,-3.35 -1.18,-4.9 -1.17,-1.55 -3.77,-1.55 v 0 q -3.05,0 -4.8,2.05 -1.75,2.05 -1.75,5.6 v 0 V 0 h -4.05 v -15.1 q 0,-3.4 -1.2,-4.93 -1.2,-1.52 -3.8,-1.52 v 0 q -3.05,0 -4.8,2.05 -1.75,2.05 -1.75,5.6 v 0 V 0 h -4.05 v -24.35 h 4 v 3.85 q 1.1,-2.15 3.05,-3.3 1.95,-1.15 4.5,-1.15 v 0 q 5.65,0 7.45,4.8 v 0 q 1.05,-2.25 3.2,-3.53 2.15,-1.27 4.9,-1.27 z m 25.6,25.3 q -3.45,0 -6.08,-1.55 -2.62,-1.55 -4.05,-4.43 -1.42,-2.87 -1.42,-6.67 v 0 q 0,-3.8 1.42,-6.68 1.43,-2.87 4.05,-4.42 2.63,-1.55 6.08,-1.55 v 0 q 3.45,0 6.1,1.55 2.65,1.55 4.07,4.42 1.43,2.88 1.43,6.68 v 0 q 0,3.8 -1.43,6.67 -1.42,2.88 -4.07,4.43 -2.65,1.55 -6.1,1.55 z m 0,-3.35 q 3.6,0 5.52,-2.38 1.93,-2.37 1.93,-6.92 v 0 q 0,-4.45 -1.95,-6.88 -1.95,-2.42 -5.5,-2.42 v 0 q -3.55,0 -5.5,2.42 -1.95,2.43 -1.95,6.88 v 0 q 0,4.5 1.92,6.9 1.93,2.4 5.53,2.4 z m 35.19,-32.25 h 4.05 V 0 h -4.05 v -4.45 q -1.1,2.3 -3.22,3.55 -2.13,1.25 -4.98,1.25 v 0 q -3.2,0 -5.65,-1.6 -2.45,-1.6 -3.8,-4.48 -1.35,-2.87 -1.35,-6.67 v 0 q 0,-3.75 1.35,-6.6 1.35,-2.85 3.8,-4.4 2.45,-1.55 5.65,-1.55 v 0 q 2.85,0 4.98,1.25 2.12,1.25 3.22,3.55 v 0 z M 210.93,-3 q 3.55,0 5.48,-2.43 1.92,-2.42 1.92,-6.87 v 0 q 0,-4.45 -1.92,-6.85 -1.93,-2.4 -5.48,-2.4 v 0 q -3.55,0 -5.52,2.4 -1.98,2.4 -1.98,6.75 v 0 q 0,4.45 1.98,6.92 1.97,2.48 5.52,2.48 z m 23,3 h -4.05 v -24.35 h 4.05 z m -4.45,-30.35 v -4.55 h 4.9 v 4.55 z m 17.4,4.65 v 1.35 h 6.9 v 3.2 h -6.9 V 0 h -4.05 v -21.15 h -4.75 v -3.2 h 4.75 v -0.8 q 0,-4.85 2.42,-7.35 2.43,-2.5 7.48,-2.8 v 0 l 2,-0.1 0.3,3.15 -2.3,0.15 q -3.05,0.2 -4.45,1.72 -1.4,1.53 -1.4,4.68 z m 20.9,21.3 8.25,-19.9 h 4.05 L 265.68,9 h -4.15 l 4.1,-9.3 -10.3,-24 h 4.3 z m 29.59,-7.25 h -14 V -15 h 14 z m 27.8,-1.4 v 1.5 h -17.8 q 0.2,4.25 2.3,6.42 2.1,2.18 5.95,2.18 v 0 q 4.25,0 7.8,-2.9 v 0 l 1.35,2.95 q -1.6,1.5 -4.1,2.37 -2.5,0.88 -5.1,0.88 v 0 q -5.7,0 -8.97,-3.35 -3.28,-3.35 -3.28,-9.25 v 0 q 0,-3.75 1.45,-6.63 1.45,-2.87 4.08,-4.47 2.62,-1.6 5.97,-1.6 v 0 q 4.85,0 7.6,3.17 2.75,3.18 2.75,8.73 z m -10.3,-8.75 q -3.2,0 -5.12,2 -1.93,2 -2.28,5.65 v 0 h 14.15 q -0.1,-3.7 -1.85,-5.68 -1.75,-1.97 -4.9,-1.97 z m 28.5,-3.15 q 8.75,0 8.75,9.65 v 0 V 0 h -4.05 v -15.05 q 0,-3.4 -1.33,-4.95 -1.32,-1.55 -4.22,-1.55 v 0 q -3.35,0 -5.35,2.05 -2,2.05 -2,5.55 v 0 V 0 h -4.05 v -24.35 h 4 v 4 q 1.2,-2.25 3.35,-3.43 2.15,-1.17 4.9,-1.17 z m 28.4,0 q 8.75,0 8.75,9.65 v 0 V 0 h -4.05 v -15.05 q 0,-3.4 -1.33,-4.95 -1.32,-1.55 -4.22,-1.55 v 0 q -3.35,0 -5.35,2.05 -2,2.05 -2,5.55 v 0 V 0 h -4.05 v -35.25 h 4.05 v 14.8 q 1.2,-2.2 3.32,-3.35 2.13,-1.15 4.88,-1.15 z m 26.04,0 q 4.65,0 6.93,2.37 2.27,2.38 2.27,7.23 v 0 V 0 h -3.95 v -4.15 q -0.95,2.15 -2.9,3.32 -1.95,1.18 -4.5,1.18 v 0 q -2.35,0 -4.32,-0.95 -1.98,-0.95 -3.13,-2.65 -1.15,-1.7 -1.15,-3.75 v 0 q 0,-2.75 1.4,-4.28 1.4,-1.52 4.6,-2.2 3.2,-0.67 8.9,-0.67 v 0 h 1.1 v -1.65 q 0,-3.05 -1.25,-4.43 -1.25,-1.37 -4.05,-1.37 v 0 q -4.2,0 -8.35,2.6 v 0 l -1.35,-2.95 q 1.9,-1.35 4.58,-2.18 2.67,-0.82 5.17,-0.82 z m -1.6,22.1 q 3,0 4.93,-2.03 1.92,-2.02 1.92,-5.22 v 0 -1.45 h -0.9 q -4.4,0 -6.7,0.37 -2.3,0.38 -3.27,1.25 -0.98,0.88 -0.98,2.58 v 0 q 0,1.95 1.43,3.22 1.42,1.28 3.57,1.28 z m 30.45,-22.1 q 8.75,0 8.75,9.65 v 0 V 0 h -4.05 v -15.05 q 0,-3.4 -1.32,-4.95 -1.33,-1.55 -4.23,-1.55 v 0 q -3.35,0 -5.35,2.05 -2,2.05 -2,5.55 v 0 V 0 h -4.05 v -24.35 h 4 v 4 q 1.2,-2.25 3.35,-3.43 2.15,-1.17 4.9,-1.17 z m 26.45,25.3 q -3.6,0 -6.25,-1.55 -2.65,-1.55 -4.08,-4.38 -1.42,-2.82 -1.42,-6.62 v 0 q 0,-3.8 1.47,-6.68 1.48,-2.87 4.15,-4.47 2.68,-1.6 6.28,-1.6 v 0 q 2.45,0 4.8,0.87 2.35,0.88 3.8,2.33 v 0 l -1.35,3 q -3.45,-2.8 -7,-2.8 v 0 q -3.75,0 -5.85,2.45 -2.1,2.45 -2.1,6.9 v 0 q 0,4.4 2.1,6.8 2.1,2.4 5.85,2.4 v 0 q 3.55,0 7,-2.8 v 0 l 1.35,3 q -1.55,1.45 -3.9,2.3 -2.35,0.85 -4.85,0.85 z m 34.04,-13.4 v 1.5 h -17.79 q 0.2,4.25 2.29,6.42 2.1,2.18 5.96,2.18 v 0 q 4.25,0 7.79,-2.9 v 0 l 1.35,2.95 q -1.6,1.5 -4.1,2.37 -2.5,0.88 -5.09,0.88 v 0 q -5.7,0 -8.98,-3.35 -3.27,-3.35 -3.27,-9.25 v 0 q 0,-3.75 1.44,-6.63 1.45,-2.87 4.08,-4.47 2.62,-1.6 5.98,-1.6 v 0 q 4.84,0 7.59,3.17 2.75,3.18 2.75,8.73 z m -10.29,-8.75 q -3.21,0 -5.13,2 -1.92,2 -2.28,5.65 v 0 h 14.16 q -0.11,-3.7 -1.86,-5.68 -1.75,-1.97 -4.89,-1.97 z"
                                 opacity="1"
                                 fill="#ed2647"
                                 class="slogan-text-1"
                                 data-fill-palette-color="secondary"
                                 id="text-1" />
                            </svg>
                          </g>
                        </svg>
                      </g>
                    </svg>
                  </g>
                </svg>
              </g>
              <g
                 id="g12">
                <svg
                   viewBox="0 0 214.48852 214.48852"
                   height="214.48853"
                   width="214.48853"
                   version="1.1"
                   id="svg12">
                  <g
                     id="g6">
                    <svg
                       version="1.1"
                       id="svg6"
                       width="100%"
                       height="100%" />
                  </g>
                  <g
                     id="icon-0">
                    <svg
                       viewBox="0 0 214.48852 214.48852"
                       height="214.48853"
                       width="214.48853"
                       version="1.1"
                       id="svg11">
                      <g
                         id="g7">
                        <rect
                           width="195.02567"
                           height="195.02567"
                           x="9.7314234"
                           y="9.7314234"
                           fill="#ed2647"
                           data-fill-palette-color="accent"
                           id="rect6" />
                        <rect
                           width="195.02567"
                           height="195.02567"
                           x="19.462847"
                           y="-5.3290705e-15"
                           fill="#ed2647"
                           opacity="0.5"
                           data-fill-palette-color="accent"
                           id="rect7" />
                      </g>
                      <g
                         transform="translate(27.80407,27.804067)"
                         id="g11">
                        <svg
                           viewBox="0 0 158.88038 158.88038"
                           height="158.88039"
                           width="158.88037"
                           version="1.1"
                           id="svg10">
                          <g
                             id="g10">
                            <svg
                               version="1.1"
                               viewBox="15.64183 29.886516 118.26976 118.26976"
                               xml:space="preserve"
                               x="0"
                               y="0"
                               height="158.88039"
                               width="158.88037"
                               class="icon-cg-0"
                               data-fill-palette-color="quaternary"
                               id="cg-0"><g
                                 transform="matrix(0.83502688,0,0,0.83502688,-9.3135625,-23.501758)"
                                 fill="#ffffff"
                                 data-fill-palette-color="quaternary"
                                 id="g9"><g
                                   fill="#ffffff"
                                   data-fill-palette-color="quaternary"
                                   id="g8"><path
                                   d="m 122.32306,105.91499 -0.017,-12.54 -41.904,33.033 c 0.06,3.9 -0.06,8.394 0,12.295 l 41.904,33.033 -0.034,-12.654 -34.394,-26.472 z m 38.166,26.322 c 0,32.659 -26.476,59.135 -59.135,59.135 -32.659,0 -59.135,-26.476 -59.135,-59.135 0,-32.659 26.476,-59.135 59.135,-59.134 32.659,0 59.135,26.476 59.135,59.134 z"
                                   fill="#ffffff"
                                   data-fill-palette-color="quaternary"
                                   id="path7" /></g></g></svg>
                          </g>
                        </svg>
                      </g>
                    </svg>
                  </g>
                </svg>
              </g>
            </svg>
          </g>
          <defs
             id="defs13" />
        </svg>
        <rect
           width="395.51999"
           height="133.69798"
           fill="none"
           stroke="none"
           visibility="hidden"
           id="rect14"
           x="0"
           y="0" />
      </g>
    </svg>
  </g>
</svg>
